<?xml version="1.0" standalone="no"?><!DOCTYPE svg PUBLIC "-//W3C//DTD SVG 1.1//EN" "http://www.w3.org/Graphics/SVG/1.1/DTD/svg11.dtd"><svg t="1531423469392" class="icon" style="" viewBox="0 0 1024 1024" version="1.1" xmlns="http://www.w3.org/2000/svg" p-id="6070" data-spm-anchor-id="a313x.7781069.0.i14" xmlns:xlink="http://www.w3.org/1999/xlink" width="200" height="200"><defs><style type="text/css"></style></defs><path d="M951.822632 103.120612c-2.77623-2.197038-6.570649-2.582825-9.665127-0.949628L69.066517 548.641525c-3.251044 1.670036-5.166673 5.114484-4.88424 8.752338 0.315178 3.638877 2.77623 6.730285 6.255471 7.838525l292.266483 92.89676c3.075035 0.966001 6.396687 0.245593 8.752338-1.90028l404.309302-364.274494-322.81729 382.112768c-1.950422 2.303462-2.618641 5.449106-1.75804 8.347109 0.862647 2.902096 3.110851 5.186116 6.010901 6.066159l324.294944 98.780771c0.844228 0.26606 1.722224 0.387833 2.602268 0.387833 1.544169 0 3.090385-0.404206 4.460592-1.177825 2.146896-1.230014 3.709485-3.28686 4.288676-5.692652L954.985672 112.311948C955.812503 108.884896 954.581466 105.299231 951.822632 103.120612z" fill="#8794CB" p-id="6071" data-spm-anchor-id="a313x.7781069.0.i0" class=""></path><path d="M552.082392 759.425206l-89.627297-27.574009c-2.706645-0.881067-5.694699-0.352017-7.979742 1.353834-2.301416 1.703805-3.65525 4.394077-3.65525 7.238868l0 169.168887c0 4.006244 2.636037 7.522324 6.502088 8.644891 0.809435 0.229221 1.651616 0.352017 2.495844 0.352017 3.022847 0 5.921873-1.526773 7.590885-4.182252L557.038264 772.83461c1.511423-2.371 1.829671-5.306866 0.843204-7.92653C556.916491 762.272044 554.771641 760.251014 552.082392 759.425206z" fill="#BFC7EC" p-id="6072" data-spm-anchor-id="a313x.7781069.0.i9" class="selected"></path></svg>