<?xml version="1.0" standalone="no"?><!DOCTYPE svg PUBLIC "-//W3C//DTD SVG 1.1//EN" "http://www.w3.org/Graphics/SVG/1.1/DTD/svg11.dtd"><svg t="1531467316163" class="icon" style="" viewBox="0 0 1024 1024" version="1.1" xmlns="http://www.w3.org/2000/svg" p-id="3872" xmlns:xlink="http://www.w3.org/1999/xlink" width="64" height="64"><defs><style type="text/css"></style></defs><path d="M522.7 368.4c-109.3 0-198.1 88.9-198.1 198.1 0 109.3 88.9 198.1 198.1 198.1 109.3 0 198.1-88.9 198.1-198.1 0-109.2-88.9-198.1-198.1-198.1m421.1-170.7H758.5l-73-93.8c-4.1-5.2-10.2-8.2-16.8-8.2H366.1c-6.8 0-13.2 3.2-17.2 8.7l-68.7 93.3h-200C37.1 197.7 2 232.8 2 276v574.1c0 43.2 35.1 78.2 78.3 78.2h863.5c43.2 0 78.3-35.1 78.3-78.2V276c-0.1-43.2-35.2-78.3-78.3-78.3M522.7 807.3c-132.8 0-240.7-108-240.7-240.7 0-132.8 108-240.7 240.7-240.7 132.8 0 240.7 108 240.7 240.7s-108 240.7-240.7 240.7m330.1-428.6c-17.2 0-31.2-14-31.2-31.2s14-31.2 31.2-31.2 31.2 14 31.2 31.2c-0.1 17.2-14 31.2-31.2 31.2m0 0z" p-id="3873" fill="#fefefe"></path></svg>