<?xml version="1.0" standalone="no"?><!DOCTYPE svg PUBLIC "-//W3C//DTD SVG 1.1//EN" "http://www.w3.org/Graphics/SVG/1.1/DTD/svg11.dtd"><svg t="1531586946702" class="icon" style="" viewBox="0 0 1024 1024" version="1.1" xmlns="http://www.w3.org/2000/svg" p-id="1089" xmlns:xlink="http://www.w3.org/1999/xlink" width="64" height="64"><defs><style type="text/css"></style></defs><path d="M512 409.6c-84.8384 0-153.6 68.79232-153.6 153.6 0 84.8384 68.7616 153.6 153.6 153.6 84.81792 0 153.6-68.7616 153.6-153.6C665.6 478.39232 596.81792 409.6 512 409.6zM921.6 256 798.72 256c-16.896 0-35.10272-13.1072-40.43776-29.14304l-31.76448-95.32416C721.16224 115.5072 702.976 102.4 686.08 102.4L337.92 102.4c-16.896 0-35.10272 13.1072-40.43776 29.14304l-31.76448 95.32416C260.36224 242.8928 242.176 256 225.28 256L102.4 256C46.08 256 0 302.08 0 358.4l0 460.8c0 56.32 46.08 102.4 102.4 102.4l819.2 0c56.32 0 102.4-46.08 102.4-102.4L1024 358.4C1024 302.08 977.92 256 921.6 256zM512 819.2c-141.38368 0-256-114.61632-256-256 0-141.37344 114.61632-256 256-256 141.3632 0 256 114.62656 256 256C768 704.58368 653.3632 819.2 512 819.2zM885.76 430.00832c-19.78368 0-35.84-16.03584-35.84-35.84 0-19.78368 16.05632-35.84 35.84-35.84 19.80416 0 35.84 16.05632 35.84 35.84C921.6 413.97248 905.55392 430.00832 885.76 430.00832z" p-id="1090" fill="#fefefe"></path></svg>