<?xml version="1.0" standalone="no"?><!DOCTYPE svg PUBLIC "-//W3C//DTD SVG 1.1//EN" "http://www.w3.org/Graphics/SVG/1.1/DTD/svg11.dtd"><svg t="1531458279720" class="icon" style="" viewBox="0 0 1024 1024" version="1.1" xmlns="http://www.w3.org/2000/svg" p-id="1954" xmlns:xlink="http://www.w3.org/1999/xlink" width="64" height="64"><defs><style type="text/css"></style></defs><path d="M248.749876 649.820925" p-id="1955" fill="#707070"></path><path d="M89.860099 149.289118" p-id="1956" fill="#707070"></path><path d="M821.166897 84.956927 483.472781 422.635693 145.804249 84.96716c-14.965853-14.971993-39.20593-14.971993-54.171784-0.011256-14.9679 14.960737-14.990413 39.21514-0.01228 54.188156L429.290765 476.819756 91.609952 814.499545c-14.944364 14.954597-14.95562 39.210024 0.011256 54.171784 14.966876 14.96176 39.22742 14.94948 54.171784 0.01228l337.680812-337.692069 337.668533 337.679789c14.95562 14.96176 39.22742 14.94948 54.194296-0.01228 14.9679-14.959713 14.95562-39.204907-0.011256-54.169737L537.644565 476.819756l337.691045-337.686952c14.9679-14.96176 14.95562-39.209-0.011256-54.165644C860.357478 70.007447 836.109214 69.995167 821.166897 84.956927L821.166897 84.956927z" p-id="1957" fill="#707070"></path></svg>