<?xml version="1.0" standalone="no"?><!DOCTYPE svg PUBLIC "-//W3C//DTD SVG 1.1//EN" "http://www.w3.org/Graphics/SVG/1.1/DTD/svg11.dtd"><svg t="1531581681566" class="icon" style="" viewBox="0 0 1024 1024" version="1.1" xmlns="http://www.w3.org/2000/svg" p-id="1894" xmlns:xlink="http://www.w3.org/1999/xlink" width="64" height="64"><defs><style type="text/css"></style></defs><path d="M708 349.1H316c-16.8 0-28 11.2-28 28s11.2 28 28 28h392c16.8 0 28-11.2 28-28s-11.2-28-28-28zM708 517.1H316c-16.8 0-28 11.2-28 28s11.2 28 28 28h392c16.8 0 28-11.2 28-28s-11.2-28-28-28z" p-id="1895" fill="#fefefe"></path><path d="M904 125.1H120c-33.6 0-56 22.4-56 56v560c0 33.6 22.4 56 56 56h112v72.8c0 5.6 5.6 16.8 16.8 22.4 11.2 11.2 39.2 5.6 44.8 0 11.2-5.6 168-100.8 168-100.8H904c33.6 0 56-22.4 56-56V181.1c0-33.6-22.4-56-56-56z m0 588c0 16.8-11.2 28-28 28H456c-5.6 0-11.2 0-16.8 5.6l-151.2 84v-61.6c0-16.8-11.2-28-28-28H148c-16.8 0-28-11.2-28-28v-504c0-16.8 11.2-28 28-28h728c16.8 0 28 11.2 28 28v504z" p-id="1896" fill="#fefefe"></path></svg>