<?xml version="1.0" standalone="no"?><!DOCTYPE svg PUBLIC "-//W3C//DTD SVG 1.1//EN" "http://www.w3.org/Graphics/SVG/1.1/DTD/svg11.dtd"><svg t="1532593571338" class="icon" style="" viewBox="0 0 1024 1024" version="1.1" xmlns="http://www.w3.org/2000/svg" p-id="3503" xmlns:xlink="http://www.w3.org/1999/xlink" width="32" height="32"><defs><style type="text/css"></style></defs><path d="M367.314951 78.926416 174.406823 78.926416C121.206599 78.926416 77.952151 122.188162 77.952151 175.381088l0 192.909344c0 53.171032 43.254449 96.454672 96.454672 96.454672l192.908128 0c53.200223 0 96.454672-43.28364 96.454672-96.454672L463.769623 175.381088C463.769623 122.188162 420.515174 78.926416 367.314951 78.926416L367.314951 78.926416zM415.545328 368.290432c0 26.58734-21.64182 48.224295-48.230377 48.224295L174.406823 416.514728c-26.588557 0-48.230377-21.636955-48.230377-48.224295L126.176446 175.381088c0-26.606801 21.64182-48.229161 48.230377-48.229161l192.908128 0c26.588557 0 48.230377 21.622359 48.230377 48.229161L415.545328 368.290432 415.545328 368.290432zM367.314951 561.19856 174.406823 561.19856c-53.200223 0-96.454672 43.26053-96.454672 96.455889l0 192.909344c0 53.194142 43.254449 96.453456 96.454672 96.453456l192.908128 0c53.200223 0 96.454672-43.258098 96.454672-96.453456L463.769623 657.654449C463.769623 604.459091 420.515174 561.19856 367.314951 561.19856L367.314951 561.19856zM415.545328 850.562577c0 26.58734-21.64182 48.229161-48.230377 48.229161L174.406823 898.791738c-26.588557 0-48.230377-21.64182-48.230377-48.229161L126.176446 657.654449c0-26.582475 21.64182-48.224295 48.230377-48.224295l192.908128 0c26.588557 0 48.230377 21.636955 48.230377 48.224295L415.545328 850.562577 415.545328 850.562577zM849.587096 561.19856 656.678968 561.19856c-53.208737 0-96.454672 43.26053-96.454672 96.455889l0 192.909344c0 53.194142 43.2508 96.453456 96.454672 96.453456l96.611576 0c13.336849 0 24.112148-10.785029 24.112148-24.112148s-10.775298-24.110931-24.112148-24.110931l-96.611576 0c-26.582475 0-48.224295-21.64182-48.224295-48.229161L608.454672 657.654449c0-26.582475 21.636955-48.224295 48.224295-48.224295l192.909344 0c26.58734 0 48.229161 21.636955 48.229161 48.224295l0 96.621307c0 13.327119 10.785029 24.117013 24.117013 24.117013 13.327119 0 24.112148-10.789894 24.112148-24.117013l0-96.621307C946.046633 604.459091 902.787319 561.19856 849.587096 561.19856L849.587096 561.19856zM849.587096 78.926416 656.678968 78.926416c-53.208737 0-96.454672 43.26053-96.454672 96.454672l0 192.909344c0 53.171032 43.2508 96.454672 96.454672 96.454672l192.909344 0c53.199007 0 96.459537-43.28364 96.459537-96.454672L946.047849 175.381088C946.046633 122.188162 902.787319 78.926416 849.587096 78.926416L849.587096 78.926416zM897.817473 368.290432c0 26.58734-21.64182 48.224295-48.229161 48.224295L656.678968 416.514728c-26.582475 0-48.224295-21.636955-48.224295-48.224295L608.454672 175.381088c0-26.606801 21.636955-48.229161 48.224295-48.229161l192.909344 0c26.58734 0 48.229161 21.622359 48.229161 48.229161L897.817473 368.290432 897.817473 368.290432zM897.817473 368.290432" p-id="3504" fill="#8a8a8a"></path></svg>