<?xml version="1.0" standalone="no"?><!DOCTYPE svg PUBLIC "-//W3C//DTD SVG 1.1//EN" "http://www.w3.org/Graphics/SVG/1.1/DTD/svg11.dtd"><svg t="1532593608996" class="icon" style="" viewBox="0 0 1024 1024" version="1.1" xmlns="http://www.w3.org/2000/svg" p-id="4279" xmlns:xlink="http://www.w3.org/1999/xlink" width="32" height="32"><defs><style type="text/css"></style></defs><path d="M679.884125 977.360773c-11.106965 0-20.029172-8.919137-20.029172-20.029172 0-11.110035 8.919137-20.029172 20.029172-20.029172l207.950146 0c30.511921 0 55.389518-24.877597 55.389518-55.390541l0-188.544167c0-10.956539 8.919137-20.029172 20.029172-20.029172 10.95347 0 20.029172 8.919137 20.029172 20.029172l0 188.704826c0 52.572356-42.872436 95.444792-95.446839 95.444792l-207.946053 0L679.884125 977.360773zM133.336284 977.360773c-52.575426 0-95.447862-42.872436-95.447862-95.447862l0-188.544167c0-10.95347 8.919137-20.029172 20.029172-20.029172 10.95347 0 20.029172 8.919137 20.029172 20.029172l0 188.704826c0 30.511921 24.87862 55.390541 55.547107 55.390541l214.990492 0c11.106965 0 20.029172 8.919137 20.029172 20.029172 0 10.952446-8.919137 20.029172-20.029172 20.029172L133.336284 977.522456 133.336284 977.360773zM20.050148 524.69309c-10.95347 0-20.029172-8.919137-20.029172-20.029172 0-10.952446 8.919137-20.029172 20.029172-20.029172L1000.961794 484.634746c10.952446 0 20.029172 8.919137 20.029172 20.029172 0 10.95347-8.919137 20.029172-20.029172 20.029172L20.050148 524.69309 20.050148 524.69309zM963.408503 335.988264c-11.110035 0-20.029172-8.919137-20.029172-20.029172l0-188.544167c0-30.668487-24.87862-55.547107-55.390541-55.547107L679.884125 71.867818c-11.106965 0-20.029172-8.918114-20.029172-20.029172 0-10.952446 8.919137-20.029172 20.029172-20.029172l207.950146 0c52.574403 0 95.446839 42.87346 95.446839 95.447862l0 188.700733C983.280086 327.07015 974.362996 335.988264 963.408503 335.988264L963.408503 335.988264zM57.916571 335.988264c-10.95347 0-20.029172-8.919137-20.029172-20.029172l0-188.544167c0-52.575426 42.872436-95.447862 95.447862-95.447862l214.986399 0c11.110035 0 20.029172 8.919137 20.029172 20.029172 0 10.95347-8.919137 20.029172-20.029172 20.029172l-214.986399 0c-30.668487 0-55.547107 24.87862-55.547107 55.547107L77.788154 316.276317c0 10.796904-8.919137 19.715017-19.872606 19.715017L57.915547 335.988264zM57.916571 335.988264" fill="#8a8a8a" p-id="4280"></path></svg>