<?xml version="1.0" standalone="no"?><!DOCTYPE svg PUBLIC "-//W3C//DTD SVG 1.1//EN" "http://www.w3.org/Graphics/SVG/1.1/DTD/svg11.dtd"><svg t="1531583864338" class="icon" style="" viewBox="0 0 1024 1024" version="1.1" xmlns="http://www.w3.org/2000/svg" p-id="2733" xmlns:xlink="http://www.w3.org/1999/xlink" width="64" height="64"><defs><style type="text/css"></style></defs><path d="M563.2 665.6H409.6c-35.84 0-51.2-15.36-51.2-51.2V409.6c0-35.84 15.36-51.2 51.2-51.2h204.8c35.84 0 51.2 15.36 51.2 51.2v204.8c0 35.84-15.36 51.2-51.2 51.2h-51.2z" fill="#fefefe" p-id="2734"></path><path d="M512 0C230.4 0 0 230.4 0 512s230.4 512 512 512 512-230.4 512-512S793.6 0 512 0m0 926.72c-230.4 0-414.72-184.32-414.72-414.72S281.6 97.28 512 97.28s414.72 184.32 414.72 414.72-184.32 414.72-414.72 414.72m0 0" fill="#fefefe" p-id="2735"></path></svg>